<?xml version="1.0" encoding="utf-8"?>
<svg viewBox="0 0 500 500" xmlns="http://www.w3.org/2000/svg">
  <ellipse cx="204.416" cy="427.826" rx="61.028" ry="5.274" fill="#e6e6e6" style=""/>
  <path d="M 190.037 244.394 C 200.657 239.254 213.886 242.511 226.805 244.771 C 226.925 242.034 228.382 238.702 226.855 236.792 C 225.001 234.472 225.172 232.034 226.287 229.582 C 229.141 223.312 225.052 216.64 220.925 211.092 C 219.038 208.562 216.203 207.208 213.294 207.448 L 205.647 208.069 C 201.837 208.379 198.596 211.348 197.515 215.518 C 195.69 218.344 194.712 221.162 195.328 223.965 C 192.593 226.092 192.134 228.66 193.362 231.554 C 194.405 233.377 194.393 235.15 193.315 236.875 C 191.899 239.074 190.814 241.526 190.105 244.13 L 190.037 244.394 Z" fill="#2f2e41" style=""/>
  <path d="M 442.427 400.236 L 225.966 400.236 C 221.957 400.236 218.707 396.538 218.707 391.976 C 297.174 381.599 374.167 381.599 449.685 391.976 C 449.685 396.538 446.436 400.236 442.427 400.236 Z" fill="#2f2e41" style=""/>
  <path d="M 449.685 392.462 L 218.707 391.976 L 245.477 340.717 L 245.605 340.474 L 245.605 227.505 C 245.604 221.739 249.712 217.064 254.78 217.064 L 412.331 217.064 C 417.398 217.064 421.507 221.739 421.506 227.505 L 421.506 341.252 L 449.685 392.462 Z" fill="#3f3d56" style=""/>
  <path d="M 254.571 224.352 C 252.921 224.354 251.584 225.875 251.582 227.754 L 251.582 330.757 C 251.584 332.634 252.921 334.156 254.571 334.158 L 413.822 334.158 C 415.471 334.156 416.808 332.634 416.81 330.757 L 416.81 227.754 C 416.808 225.876 415.471 224.354 413.822 224.352 L 254.571 224.352 Z" fill="#fff" style=""/>
  <path d="M 255.238 347.762 C 254.739 347.763 254.284 348.094 254.075 348.611 L 245.826 369.017 C 245.435 369.983 246.055 371.084 246.99 371.084 L 420.451 371.084 C 421.404 371.084 422.022 369.944 421.596 368.974 L 412.631 348.568 C 412.414 348.073 411.971 347.761 411.485 347.762 L 255.238 347.762 Z" fill="#2f2e41" style=""/>
  <circle cx="506.479" cy="73.035" r="4.974" fill="#fff" transform="matrix(0.38625, 0, 0, 0.439555, 137.928162, 188.362289)" style=""/>
  <path d="M 316.506 374.971 C 315.927 374.972 315.421 375.413 315.269 376.049 L 313.2 384.795 C 312.981 385.721 313.594 386.631 314.437 386.631 L 353.786 386.631 C 354.666 386.631 355.284 385.643 354.996 384.697 L 352.336 375.952 C 352.157 375.364 351.671 374.971 351.125 374.971 L 316.506 374.971 Z" fill="#2f2e41" style=""/>
  <polygon points="421.506 338.774 421.506 340.717 245.477 340.717 245.61 340.475 245.61 338.774 421.506 338.774" fill="#2f2e41" style=""/>
  <circle cx="721.472" cy="82.431" r="77.375" style="fill: rgb(152, 14, 14);" transform="matrix(0.38625, 0, 0, 0.439555, 137.928162, 188.362289)"/>
  <path d="M 428.978 239.414 L 404.215 239.414 C 403.272 239.413 402.508 238.543 402.508 237.471 L 402.508 220.465 C 402.508 219.393 403.272 218.523 404.215 218.522 L 428.978 218.522 C 429.921 218.523 430.685 219.393 430.686 220.465 L 430.686 237.471 C 430.685 238.543 429.921 239.413 428.978 239.414 Z M 404.215 220.465 L 404.215 237.471 L 428.979 237.471 L 428.978 220.465 L 404.215 220.465 Z" fill="#fff" style=""/>
  <path d="M 424.282 220.465 L 408.911 220.465 L 408.911 212.691 C 408.911 207.061 412.144 202.974 416.597 202.974 C 421.049 202.974 424.282 207.061 424.282 212.691 L 424.282 220.465 Z M 410.619 218.522 L 422.574 218.522 L 422.574 212.691 C 422.574 208.115 420.116 204.918 416.597 204.918 C 413.077 204.918 410.62 208.115 410.62 212.691 L 410.619 218.522 Z" fill="#fff" style=""/>
  <circle cx="721.472" cy="91.274" r="4.421" fill="#fff" transform="matrix(0.38625, 0, 0, 0.439555, 137.928162, 188.362289)" style=""/>
  <path d="M 395.734 299.22 L 272.659 299.22 C 271.401 299.219 270.381 298.058 270.38 296.626 L 270.38 261.884 C 270.381 260.451 271.401 259.292 272.659 259.29 L 395.734 259.29 C 396.992 259.292 398.012 260.451 398.013 261.884 L 398.013 296.626 C 398.012 298.058 396.992 299.219 395.734 299.22 Z M 272.659 260.328 C 271.904 260.328 271.292 261.024 271.291 261.884 L 271.291 296.626 C 271.292 297.486 271.904 298.182 272.659 298.183 L 395.734 298.183 C 396.489 298.182 397.1 297.486 397.101 296.626 L 397.101 261.884 C 397.1 261.024 396.489 260.328 395.734 260.328 L 272.659 260.328 Z" fill="#e6e6e6" style=""/>
  <circle cx="398.327" cy="203.751" r="24.036" fill="#e6e6e6" transform="matrix(0.38625, 0, 0, 0.439555, 137.928162, 188.362289)" style=""/>
  <path d="M 313.224 270.878 C 312.032 270.876 311.286 272.342 311.88 273.517 C 312.157 274.064 312.669 274.401 313.224 274.4 L 386.171 274.4 C 387.361 274.4 388.106 272.933 387.51 271.759 C 387.234 271.214 386.723 270.878 386.171 270.878 L 313.224 270.878 Z" fill="#e6e6e6" style=""/>
  <path d="M 313.224 281.444 C 312.032 281.444 311.288 282.911 311.884 284.085 C 312.161 284.63 312.672 284.966 313.224 284.966 L 344.613 284.966 C 345.804 284.966 346.549 283.498 345.953 282.324 C 345.677 281.779 345.166 281.444 344.613 281.444 L 313.224 281.444 Z" fill="#e6e6e6" style=""/>
  <path d="M 245.174 282.156 L 222.423 295.921 L 222.134 284.45 C 229.561 283.039 236.626 280.584 243.158 276.584 L 245.537 269.894 C 246.672 266.705 250.392 266.059 252.311 268.718 C 253.643 270.563 253.489 273.267 251.96 274.901 L 245.174 282.156 Z" fill="#ffb8b8" style=""/>
  <path d="M 189.583 361.63 C 189.247 360.229 189.454 358.731 190.151 357.514 L 195.149 348.786 C 197.598 344.509 202.495 343.038 206.479 345.383 C 204.379 349.453 204.672 353.022 207.205 356.124 C 203.273 358.308 199.638 361.128 196.415 364.495 C 193.877 366.463 190.391 365.001 189.583 361.63 Z" fill="#2f2e41" style=""/>
  <path d="M 246.211 350.216 C 244.673 353.134 241.91 354.929 238.921 354.955 L 205.72 355.241 L 204.28 345.737 L 218.967 340.821 L 206.583 330.005 L 220.119 311.98 L 244.704 338.057 C 247.665 341.197 248.293 346.266 246.211 350.216 Z" fill="#2f2e41" style=""/>
  <path d="M 200.535 415.217 L 192.76 415.217 C 185.778 360.757 178.671 306.145 199.671 285.761 L 224.438 290.349 L 221.271 314.274 L 207.447 332.3 L 200.535 415.217 Z" fill="#2f2e41" style=""/>
  <path d="M 207.37 427.553 C 206.14 427.936 204.823 427.701 203.754 426.908 L 195.311 425.616 C 191.553 422.83 190.261 417.256 192.321 412.722 C 195.897 415.112 199.033 414.779 201.759 411.896 C 203.685 416.322 206.857 416.052 209.888 419.779 C 211.618 422.667 210.333 426.634 207.37 427.553 Z" fill="#2f2e41" style=""/>
  <path d="M 218.967 249.382 L 204.567 245.45 C 206.959 239.879 207.156 233.68 206.007 227.097 L 215.799 226.768 C 216.106 234.956 217.034 242.604 218.967 249.382 Z" fill="#ffb8b8" style=""/>
  <path d="M 222.924 300.218 C 212.442 308.346 205.035 300.496 199.383 288.383 C 200.169 280.971 198.897 272.102 196.541 262.464 C 194.37 253.652 198.481 244.413 206.007 241.189 L 218.391 247.089 C 228.906 256.842 230.975 267.408 227.031 278.551 L 222.924 300.218 Z" style="fill: rgb(152, 14, 14);"/>
  <path d="M 192.76 257.575 L 181.24 264.459 L 201.687 278.223 L 204.532 286.21 C 205.333 288.46 204.313 291.014 202.296 291.806 C 199.966 292.72 197.512 290.85 197.367 288.05 L 197.08 282.484 L 171.091 272.724 C 169.317 272.058 167.911 270.5 167.278 268.499 C 166.342 265.539 167.278 262.234 169.558 260.454 L 190.456 244.138 L 192.76 257.575 Z" fill="#ffb8b8" style=""/>
  <path d="M 204.28 258.887 C 199.475 256.491 195.106 259.094 189.592 261.181 L 188.728 243.811 C 194.203 240.49 199.424 239.594 204.28 242.172 L 204.28 258.887 Z" style="fill: rgb(152, 14, 14);"/>
  <circle cx="186.662" cy="83.148" r="23.802" fill="#ffb8b8" transform="matrix(0.38625, 0, 0, 0.439555, 137.928162, 188.362289)" style=""/>
  <path d="M 221.025 223.59 C 211.923 224.605 204.987 222.911 200.554 218.087 L 200.554 214.202 L 220.252 214.202 L 221.025 223.59 Z" fill="#2f2e41" style=""/>
</svg>